<svg width="50" height="57" viewBox="0 0 50 57" fill="none" xmlns="http://www.w3.org/2000/svg">
<g clip-path="url(#clip0_19_47)">
<path d="M23.2143 0H37.0647C38.4821 0 39.8438 0.567773 40.8482 1.56973L48.4263 9.12891C49.4308 10.1309 50 11.4891 50 12.9029V37.4062C50 40.3564 47.6004 42.75 44.6429 42.75H23.2143C20.2567 42.75 17.8571 40.3564 17.8571 37.4062V5.34375C17.8571 2.39355 20.2567 0 23.2143 0ZM5.35714 14.25H14.2857V21.375H7.14286V49.875H28.5714V46.3125H35.7143V51.6562C35.7143 54.6064 33.3147 57 30.3571 57H5.35714C2.39955 57 0 54.6064 0 51.6562V19.5938C0 16.6436 2.39955 14.25 5.35714 14.25Z" fill="#6272A4"/>
</g>
<defs>
<clipPath id="clip0_19_47">
<rect width="50" height="57" fill="white"/>
</clipPath>
</defs>
</svg>
