<svg width="148" height="111" viewBox="0 0 148 111" fill="none" xmlns="http://www.w3.org/2000/svg">
<g clip-path="url(#clip0_63_31)">
<path d="M0 21.5833H49.3333V0H6.16667C2.775 0 0 2.775 0 6.16667V21.5833Z" fill="#D6ACFF"/>
<path d="M98.6666 0H49.3333V21.5833H98.6666V0Z" fill="#BD93F9"/>
<path d="M148 21.5833H98.6667V0H141.833C145.225 0 148 2.775 148 6.16667V21.5833Z" fill="#6272A4"/>
<path d="M141.833 111H6.16667C2.775 111 0 108.225 0 104.833V18.5H148V104.833C148 108.225 145.225 111 141.833 111Z" fill="url(#paint0_linear_63_31)"/>
<g filter="url(#filter0_dd_63_31)">
<path d="M46.8668 56.425L19.7334 83.5583C18.1917 85.1 18.1917 87.2583 19.7334 88.4917L25.2834 94.0417C26.8251 95.5833 28.9834 95.5833 30.2168 94.0417L57.3501 66.9083C58.8918 65.3667 58.8918 63.2083 57.3501 61.975L51.8001 56.425C50.5668 55.1917 48.1001 55.1917 46.8668 56.425Z" fill="url(#paint1_linear_63_31)"/>
<mask id="mask0_63_31" style="mask-type:alpha" maskUnits="userSpaceOnUse" x="18" y="55" width="41" height="41">
<path d="M46.8668 56.425L19.7334 83.5583C18.1917 85.1 18.1917 87.2583 19.7334 88.4917L25.2834 94.0417C26.8251 95.5833 28.9834 95.5833 30.2168 94.0417L57.3501 66.9083C58.8918 65.3667 58.8918 63.2083 57.3501 61.975L51.8001 56.425C50.5668 55.1917 48.1001 55.1917 46.8668 56.425Z" fill="url(#paint2_linear_63_31)"/>
</mask>
<g mask="url(#mask0_63_31)">
<g filter="url(#filter1_dd_63_31)">
<path d="M30.2168 34.8417L57.3501 61.975C58.8918 63.5167 58.8918 65.675 57.3501 66.9083L51.8001 72.4583C50.2584 74 48.1001 74 46.8668 72.4583L19.7334 45.325C18.1917 43.7833 18.1917 41.625 19.7334 40.3917L25.2834 34.8417C26.5167 33.6083 28.9834 33.6083 30.2168 34.8417Z" fill="url(#paint3_linear_63_31)"/>
</g>
</g>
<path d="M30.2168 34.8417L57.3501 61.975C58.8918 63.5167 58.8918 65.675 57.3501 66.9083L51.8001 72.4583C50.2584 74 48.1001 74 46.8668 72.4583L19.7334 45.325C18.1917 43.7833 18.1917 41.625 19.7334 40.3917L25.2834 34.8417C26.5167 33.6083 28.9834 33.6083 30.2168 34.8417Z" fill="url(#paint4_linear_63_31)"/>
</g>
<g filter="url(#filter2_dd_63_31)">
<path d="M123.333 80.1667H74.0001C72.1501 80.1667 70.9167 81.4 70.9167 83.25V92.5C70.9167 94.35 72.1501 95.5833 74.0001 95.5833H123.333C125.183 95.5833 126.417 94.35 126.417 92.5V83.25C126.417 81.4 125.183 80.1667 123.333 80.1667Z" fill="url(#paint5_linear_63_31)"/>
</g>
</g>
<defs>
<filter id="filter0_dd_63_31" x="15.5771" y="31.9167" width="45.9292" height="67.2812" filterUnits="userSpaceOnUse" color-interpolation-filters="sRGB">
<feFlood flood-opacity="0" result="BackgroundImageFix"/>
<feColorMatrix in="SourceAlpha" type="matrix" values="0 0 0 0 0 0 0 0 0 0 0 0 0 0 0 0 0 0 127 0" result="hardAlpha"/>
<feOffset dy="0.5"/>
<feGaussianBlur stdDeviation="0.5"/>
<feColorMatrix type="matrix" values="0 0 0 0 0 0 0 0 0 0 0 0 0 0 0 0 0 0 0.1 0"/>
<feBlend mode="normal" in2="BackgroundImageFix" result="effect1_dropShadow_63_31"/>
<feColorMatrix in="SourceAlpha" type="matrix" values="0 0 0 0 0 0 0 0 0 0 0 0 0 0 0 0 0 0 127 0" result="hardAlpha"/>
<feOffset dy="1"/>
<feGaussianBlur stdDeviation="1.5"/>
<feColorMatrix type="matrix" values="0 0 0 0 0 0 0 0 0 0 0 0 0 0 0 0 0 0 0.2 0"/>
<feBlend mode="normal" in2="effect1_dropShadow_63_31" result="effect2_dropShadow_63_31"/>
<feBlend mode="normal" in="SourceGraphic" in2="effect2_dropShadow_63_31" result="shape"/>
</filter>
<filter id="filter1_dd_63_31" x="15.5771" y="31.9167" width="45.9292" height="45.6979" filterUnits="userSpaceOnUse" color-interpolation-filters="sRGB">
<feFlood flood-opacity="0" result="BackgroundImageFix"/>
<feColorMatrix in="SourceAlpha" type="matrix" values="0 0 0 0 0 0 0 0 0 0 0 0 0 0 0 0 0 0 127 0" result="hardAlpha"/>
<feOffset dy="0.5"/>
<feGaussianBlur stdDeviation="0.5"/>
<feColorMatrix type="matrix" values="0 0 0 0 0 0 0 0 0 0 0 0 0 0 0 0 0 0 0.1 0"/>
<feBlend mode="normal" in2="BackgroundImageFix" result="effect1_dropShadow_63_31"/>
<feColorMatrix in="SourceAlpha" type="matrix" values="0 0 0 0 0 0 0 0 0 0 0 0 0 0 0 0 0 0 127 0" result="hardAlpha"/>
<feOffset dy="1"/>
<feGaussianBlur stdDeviation="1.5"/>
<feColorMatrix type="matrix" values="0 0 0 0 0 0 0 0 0 0 0 0 0 0 0 0 0 0 0.2 0"/>
<feBlend mode="normal" in2="effect1_dropShadow_63_31" result="effect2_dropShadow_63_31"/>
<feBlend mode="normal" in="SourceGraphic" in2="effect2_dropShadow_63_31" result="shape"/>
</filter>
<filter id="filter2_dd_63_31" x="67.9167" y="78.1667" width="61.5" height="21.4167" filterUnits="userSpaceOnUse" color-interpolation-filters="sRGB">
<feFlood flood-opacity="0" result="BackgroundImageFix"/>
<feColorMatrix in="SourceAlpha" type="matrix" values="0 0 0 0 0 0 0 0 0 0 0 0 0 0 0 0 0 0 127 0" result="hardAlpha"/>
<feOffset dy="0.5"/>
<feGaussianBlur stdDeviation="0.5"/>
<feColorMatrix type="matrix" values="0 0 0 0 0 0 0 0 0 0 0 0 0 0 0 0 0 0 0.1 0"/>
<feBlend mode="normal" in2="BackgroundImageFix" result="effect1_dropShadow_63_31"/>
<feColorMatrix in="SourceAlpha" type="matrix" values="0 0 0 0 0 0 0 0 0 0 0 0 0 0 0 0 0 0 127 0" result="hardAlpha"/>
<feOffset dy="1"/>
<feGaussianBlur stdDeviation="1.5"/>
<feColorMatrix type="matrix" values="0 0 0 0 0 0 0 0 0 0 0 0 0 0 0 0 0 0 0.2 0"/>
<feBlend mode="normal" in2="effect1_dropShadow_63_31" result="effect2_dropShadow_63_31"/>
<feBlend mode="normal" in="SourceGraphic" in2="effect2_dropShadow_63_31" result="shape"/>
</filter>
<linearGradient id="paint0_linear_63_31" x1="112.376" y1="128.963" x2="36.4502" y2="-2.54437" gradientUnits="userSpaceOnUse">
<stop stop-color="#21222C"/>
<stop offset="1" stop-color="#6272A4"/>
</linearGradient>
<linearGradient id="paint1_linear_63_31" x1="44.7935" y1="86.3207" x2="32.3261" y2="64.7266" gradientUnits="userSpaceOnUse">
<stop stop-color="#21222C"/>
<stop offset="1" stop-color="#6272A4"/>
</linearGradient>
<linearGradient id="paint2_linear_63_31" x1="44.7935" y1="86.3207" x2="32.3261" y2="64.7266" gradientUnits="userSpaceOnUse">
<stop stop-color="#21222C"/>
<stop offset="1" stop-color="#6272A4"/>
</linearGradient>
<linearGradient id="paint3_linear_63_31" x1="50.1804" y1="74.1036" x2="26.9391" y2="33.8491" gradientUnits="userSpaceOnUse">
<stop stop-color="#CCCCCC"/>
<stop offset="1" stop-color="#E6E6E6"/>
</linearGradient>
<linearGradient id="paint4_linear_63_31" x1="50.1804" y1="74.1036" x2="26.9391" y2="33.8491" gradientUnits="userSpaceOnUse">
<stop stop-color="#F8F8F2"/>
<stop offset="1" stop-color="white"/>
</linearGradient>
<linearGradient id="paint5_linear_63_31" x1="108.378" y1="104.695" x2="88.9555" y2="71.0545" gradientUnits="userSpaceOnUse">
<stop stop-color="#F8F8F2"/>
<stop offset="1" stop-color="white"/>
</linearGradient>
<clipPath id="clip0_63_31">
<rect width="148" height="111" fill="white"/>
</clipPath>
</defs>
</svg>
