<svg width="50" height="66" viewBox="0 0 50 66" fill="none" xmlns="http://www.w3.org/2000/svg">
<g clip-path="url(#clip0_19_44)">
<path d="M29.1016 4.125C13.0208 4.125 0 17.0543 0 33C0 48.9457 13.0208 61.875 29.1016 61.875C36.9922 61.875 44.1406 58.7555 49.388 53.7023C50.0391 53.0707 50.2083 52.091 49.7917 51.2918C49.375 50.4926 48.4766 50.0414 47.5781 50.1961C46.3021 50.4152 45 50.5312 43.6589 50.5312C31.0417 50.5312 20.8073 40.3734 20.8073 27.8438C20.8073 19.3617 25.4948 11.9754 32.4349 8.08242C33.2292 7.63125 33.6328 6.72891 33.4375 5.85234C33.2422 4.97578 32.487 4.31836 31.5755 4.24102C30.7552 4.17656 29.9349 4.13789 29.1016 4.13789V4.125Z" fill="#6272A4"/>
</g>
<defs>
<clipPath id="clip0_19_44">
<rect width="50" height="66" fill="white"/>
</clipPath>
</defs>
</svg>
