<svg width="50" height="57" viewBox="0 0 50 57" fill="none" xmlns="http://www.w3.org/2000/svg">
<path d="M48.9509 31.016C50.346 29.6244 50.346 27.3645 48.9509 25.9729L31.0938 8.16036C29.6987 6.76876 27.4331 6.76876 26.038 8.16036C24.6429 9.55196 24.6429 11.8119 26.038 13.2035L37.8125 24.9375L3.57144 24.9375C1.596 24.9375 1.34858e-05 26.5295 1.33135e-05 28.5C1.31412e-05 30.4705 1.59599 32.0625 3.57144 32.0625L37.8014 32.0625L26.0491 43.7965C24.654 45.1881 24.654 47.4481 26.0491 48.8397C27.4442 50.2313 29.7098 50.2313 31.1049 48.8397L48.9621 31.0272L48.9509 31.016Z" fill="#6272A4"/>
</svg>
