<svg width="50" height="57" viewBox="0 0 50 57" fill="none" xmlns="http://www.w3.org/2000/svg">
<g clip-path="url(#clip0_19_40)">
<path d="M1.04911 25.984C-0.34598 27.3756 -0.34598 29.6355 1.04911 31.0271L18.9063 48.8396C20.3013 50.2312 22.567 50.2312 23.9621 48.8396C25.3571 47.448 25.3571 45.1881 23.9621 43.7965L12.1875 32.0625H46.4286C48.404 32.0625 50 30.4705 50 28.5C50 26.5295 48.404 24.9375 46.4286 24.9375H12.1987L23.9509 13.2035C25.346 11.8119 25.346 9.55194 23.9509 8.16034C22.5558 6.76874 20.2902 6.76874 18.8951 8.16034L1.03795 25.9728L1.04911 25.984Z" fill="#6272A4"/>
</g>
<defs>
<clipPath id="clip0_19_40">
<rect width="50" height="57" fill="white"/>
</clipPath>
</defs>
</svg>
