<svg width="150" height="43" viewBox="0 0 150 43" fill="none" xmlns="http://www.w3.org/2000/svg">
<g clip-path="url(#clip0_16_72)">
<path d="M0 21.5C0 9.62588 9.62588 0 21.5 0H120.119L150 43H21.5C9.62588 43 0 33.3741 0 21.5V21.5Z" fill="#67B0E8"/>
<path d="M100 -11.2642L108.192 -16.9999L150 43L142.159 48.9446L100 -11.2642Z" fill="#A3CEEF"/>
<path d="M50.5748 33.32C48.4414 33.32 46.7561 32.7227 45.5188 31.528C44.2814 30.3333 43.6628 28.6907 43.6628 26.6V16.04C43.6628 13.9493 44.2814 12.3067 45.5188 11.112C46.7561 9.91733 48.4414 9.32 50.5748 9.32C52.6654 9.32 54.3294 9.928 55.5668 11.144C56.8041 12.3387 57.4228 13.9707 57.4228 16.04H54.5428C54.5428 14.7173 54.1908 13.704 53.4868 13C52.8041 12.2747 51.8334 11.912 50.5748 11.912C49.3161 11.912 48.3241 12.2747 47.5988 13C46.8948 13.704 46.5428 14.7173 46.5428 16.04V26.6C46.5428 27.9227 46.8948 28.9467 47.5988 29.672C48.3241 30.376 49.3161 30.728 50.5748 30.728C51.8334 30.728 52.8041 30.376 53.4868 29.672C54.1908 28.9467 54.5428 27.9227 54.5428 26.6H57.4228C57.4228 28.6693 56.8041 30.312 55.5668 31.528C54.3294 32.7227 52.6654 33.32 50.5748 33.32ZM69.5063 19.816C68.6316 19.816 67.9703 19.6027 67.5223 19.176C67.0743 18.7493 66.8503 18.1733 66.8503 17.448C66.8503 16.7227 67.0743 16.1467 67.5223 15.72C67.9703 15.2933 68.6316 15.08 69.5063 15.08C70.3809 15.08 71.0423 15.2933 71.4903 15.72C71.9383 16.1467 72.1623 16.7227 72.1623 17.448C72.1623 18.1733 71.9383 18.7493 71.4903 19.176C71.0423 19.6027 70.3809 19.816 69.5063 19.816ZM69.5063 33.32C68.6316 33.32 67.9703 33.1067 67.5223 32.68C67.0743 32.2533 66.8503 31.6773 66.8503 30.952C66.8503 30.2267 67.0743 29.6507 67.5223 29.224C67.9703 28.7973 68.6316 28.584 69.5063 28.584C70.3809 28.584 71.0423 28.7973 71.4903 29.224C71.9383 29.6507 72.1623 30.2267 72.1623 30.952C72.1623 31.6773 71.9383 32.2533 71.4903 32.68C71.0423 33.1067 70.3809 33.32 69.5063 33.32ZM92.8538 36.52L81.4938 6.44H84.5338L95.8938 36.52H92.8538Z" fill="white"/>
</g>
<defs>
<clipPath id="clip0_16_72">
<rect width="150" height="43" fill="white"/>
</clipPath>
</defs>
</svg>
