<svg width="50" height="57" viewBox="0 0 50 57" fill="none" xmlns="http://www.w3.org/2000/svg">
<path d="M39.2857 24.9375C45.2009 24.9375 50 20.1504 50 14.25C50 8.34961 45.2009 3.5625 39.2857 3.5625C33.3705 3.5625 28.5714 8.34961 28.5714 14.25C28.5714 14.6953 28.5938 15.1406 28.6496 15.5748L18.1473 20.8072C16.2277 18.948 13.6049 17.8125 10.7143 17.8125C4.79911 17.8125 0 22.5996 0 28.5C0 34.4004 4.79911 39.1875 10.7143 39.1875C13.6049 39.1875 16.2277 38.052 18.1473 36.1928L28.6496 41.4252C28.5938 41.8594 28.5714 42.2936 28.5714 42.75C28.5714 48.6504 33.3705 53.4375 39.2857 53.4375C45.2009 53.4375 50 48.6504 50 42.75C50 36.8496 45.2009 32.0625 39.2857 32.0625C36.3951 32.0625 33.7723 33.198 31.8527 35.0572L21.3504 29.8248C21.4062 29.3906 21.4286 28.9564 21.4286 28.5C21.4286 28.0436 21.4062 27.6094 21.3504 27.1752L31.8527 21.9428C33.7723 23.802 36.3951 24.9375 39.2857 24.9375Z" fill="#6272A4"/>
</svg>
